<?xml version="1.0" encoding="UTF-8"?>
<svg id="Qwallet_Logo" data-name="Qwallet Logo" xmlns="http://www.w3.org/2000/svg" viewBox="0 0 7558 2000">
  <defs>
    <style>
      .cls-1 {
        fill: #000;
        stroke-width: 0px;
      }
    </style>
  </defs>
  <g id="Logo">
    <g>
      <path class="cls-1" d="M3000.12,1602.14h-11.7c-9.43,0-17.66-6.38-20.02-15.51l-149.44-578.92v-152.24c0-11.42-9.26-20.67-20.67-20.67h-153.59c-11.42,0-20.67,9.26-20.67,20.67v152.22l-151.38,579c-2.38,9.1-10.6,15.44-20,15.44h-11.72c-9.43,0-17.67-6.39-20.02-15.52l-219.82-854.19c-2.35-9.13-10.59-15.52-20.02-15.52h-155.5c-13.47,0-23.34,12.68-20.04,25.74l257.19,1016.84c2.32,9.18,10.58,15.6,20.04,15.6h321.92c9.62,0,17.96-6.63,20.14-16l96.51-415.96,94.82,415.88c2.14,9.41,10.51,16.08,20.15,16.08h323.92c9.46,0,17.72-6.43,20.04-15.6l257.19-1016.84c3.3-13.06-6.57-25.74-20.04-25.74h-155.51c-9.42,0-17.64,6.36-20.01,15.48l-221.77,854.28c-2.37,9.11-10.59,15.48-20.01,15.48Z"/>
      <path class="cls-1" d="M4370.54,840.71c-91.4-98.28-211.09-151.77-342.15-151.77-141.7,0-275.13,57.02-375.7,160.54-101.5,104.48-157.4,244.59-157.4,394.53s55.87,293.44,157.32,398.96c100.51,104.53,233.96,162.11,375.77,162.11,130.79,0,250.49-54.64,342.15-155.03v104.38c0,11.42,9.26,20.67,20.67,20.67h153.59c11.42,0,20.67-9.26,20.67-20.67v-1016.84c0-11.42-9.26-20.67-20.67-20.67h-153.59c-11.42,0-20.67,9.26-20.67,20.67v103.13ZM4028.39,875.87c138.99,0,272.76,80.41,342.15,205.28v325.61c-75.15,132.46-202.71,211.37-342.15,211.37-190.5,0-334.17-160.84-334.17-374.13s143.66-368.13,334.17-368.13Z"/>
      <rect class="cls-1" x="4790.19" y="237.32" width="194.93" height="1537.77" rx="20.67" ry="20.67"/>
      <rect class="cls-1" x="5217.81" y="237.32" width="194.93" height="1537.77" rx="20.67" ry="20.67"/>
      <path class="cls-1" d="M6154.54,688.94c-302.76,0-549.07,246.32-549.07,549.07,0,158.14,56.28,302.54,158.46,406.59,101.61,103.48,241.75,160.47,394.61,160.47,109.61,0,218.43-32.77,306.43-92.28,96.47-65.23,165.58-159.74,199.84-273.3h0c3.78-12.54-5.6-25.18-18.7-25.18h-155.86c-7.79,0-14.83,4.63-17.93,11.77h0c-57.43,132.67-198.98,192.05-313.78,192.05-189.78,0-324.57-118.93-353.42-306.83-1.92-12.5,7.85-23.78,20.49-23.78h840.49c10.79,0,19.53-8.75,19.53-19.53h0c0-158.16-51.88-303.63-146.06-409.63-97.08-109.25-233.83-169.42-385.03-169.42ZM6154.54,875.87c150.99,0,256.28,73.82,301.17,209.31,4.46,13.46-5.41,27.38-19.59,27.38h-587.97c-14.73,0-24.73-14.98-19.14-28.61,53.18-129.7,173.55-208.08,325.54-208.08Z"/>
      <path class="cls-1" d="M7147.24,696.24v-246.4c0-11.42-9.26-20.67-20.67-20.67h-153.59c-11.42,0-20.67,9.26-20.67,20.67v246.4c0,11.42-9.26,20.67-20.67,20.67h-172.47c-11.42,0-20.67,9.26-20.67,20.67v137.61c0,11.42,9.26,20.67,20.67,20.67h172.47c11.42,0,20.67,9.26,20.67,20.67v837.89c0,11.42,9.26,20.67,20.67,20.67h153.59c11.42,0,20.67-9.26,20.67-20.67v-837.89c0-11.42,9.26-20.67,20.67-20.67h174.48c11.42,0,20.67-9.26,20.67-20.67v-137.61c0-11.42-9.26-20.67-20.67-20.67h-174.48c-11.42,0-20.67-9.26-20.67-20.67Z"/>
    </g>
    <g>
      <path class="cls-1" d="M571.89,340.06c-6.82-8.06-18.6-9.85-27.36-3.93-162.99,110.35-281.3,284.69-327.31,475.66-45.92,190.59-19.32,395.01,73.67,567.47,80.86,149.96,209.23,272.76,362.77,346.64,107.66,51.8,226.53,78.87,346,78.92,146.15.07,283.28-38.8,401.46-106.94l-122.17-145.88c-83.79,42.45-178.47,66.36-278.87,66.36-171.86,0-338.5-73.13-454.95-199.51-122.04-132.44-207.71-348.99-147.67-527.96,30.11-89.77,114.02-131.49,203.63-106.45,170.57,47.67,277.18,215.65,384.8,344.12,0,0,589.16,703.48,589.16,703.48,7.37,8.75,20.4,9.92,29.15,2.55l113.15-94.75c8.75-7.37,9.92-20.4,2.55-29.15L571.89,340.06Z"/>
      <path class="cls-1" d="M1004.55,194.94c-137.88-.76-267.77,33.21-381.54,93.58-11.58,6.2-14.61,21.5-6.2,31.63l581.09,693.83c7.37,8.75,20.4,9.92,29.15,2.55l4.55-3.79c8.75-7.37,9.92-20.4,2.55-29.15,0,0-256.05-307.32-308.38-425.56-23.25-52.52-47.33-133.05,19.54-163.7,118.25-54.19,274.13,14.24,376.03,76.92,182.31,112.15,297.18,314.22,297.18,528.61,0,138.64-45.62,266.67-122.65,369.82l122.24,145.88c116.66-139.68,186.88-319.52,186.88-515.7,0-443.28-357.15-802.5-800.43-804.91Z"/>
    </g>
  </g>
</svg>