<?xml version="1.0" encoding="UTF-8"?>
<svg id="Qsilver_Wordmark" data-name="Qsilver Wordmark" xmlns="http://www.w3.org/2000/svg" version="1.1" viewBox="0 0 6715 2230">
  <defs>
    <style>
      .cls-1 {
        fill: #000;
        stroke-width: 0px;
      }
    </style>
  </defs>
  <g id="Wordmark">
    <path class="cls-1" d="M2441.8,1094.8h-115.9c-82.9,0-132.3-38.3-132.3-102.4s48.2-104.4,132.3-104.4h453.2v-179h-459.2c-188,0-319.3,116.5-319.3,283.3s131.3,281.3,319.3,281.3h113.9c132.3,0,202.3,50.6,202.3,146.3s-26.8,168.3-206.3,168.3h-425.2v178.9h435.2c287,0,389.2-178.3,389.2-345.2s-101.7-327.3-387.2-327.3Z"/>
    <rect class="cls-1" x="2981.8" y="709.1" width="194.9" height="1058.2"/>
    <rect class="cls-1" x="2981.8" y="229.5" width="194.9" height="298.8"/>
    <rect class="cls-1" x="3409.4" y="229.5" width="194.9" height="1537.8"/>
    <polygon class="cls-1" points="4227.2 1588.3 4167.4 1588.3 3941.4 723.7 3937.6 709.1 3735.3 709.1 4015.4 1767.3 4379.2 1767.3 4659.3 709.1 4457 709.1 4227.2 1588.3"/>
    <path class="cls-1" d="M5259.4,681.1c-302.8,0-549.1,246.3-549.1,549.1s56.3,302.5,158.5,406.6c101.6,103.5,241.7,160.5,394.6,160.5s218.4-32.8,306.4-92.3c96.5-65.2,165.6-159.7,199.8-273.3l7.6-25.2h-195l-5.1,11.8c-57.4,132.7-199,192-313.8,192-197.7,0-335.7-129-356.5-330.6h883.6v-19.5c0-158.2-51.9-303.6-146.1-409.6-97.1-109.2-233.8-169.4-385-169.4ZM4923.5,1104.8c46.5-146.7,173-236.7,335.9-236.7s269.9,83.8,309.2,236.7h-645.1Z"/>
    <path class="cls-1" d="M6500.3,681.1c-150.8,0-261.3,59-334.2,118.2v-90.2h-194.9v1058.2h194.9v-732.5c54.3-71.9,169.2-146.7,334.2-146.7h19.5v-206.9h-19.5Z"/>
    <path class="cls-1" d="M1000,195.4c-458.9,0-804.9,346-804.9,804.9s297.8,754.1,710.7,797.1v237.3h190.4v-237.4c411.8-44.8,708.7-377.2,708.7-797S1458.9,195.4,1000,195.4ZM905.9,1089.3v523c-303.9-42.2-514.3-290.8-514.3-612s255.9-620.6,608.5-620.6,608.5,261,608.5,620.6-209.5,569.9-512.3,612v-522.9h-190.4Z"/>
  </g>
</svg>