<?xml version="1.0" encoding="UTF-8"?>
<svg id="Qwallet_Logo" data-name="Qwallet Logo" xmlns="http://www.w3.org/2000/svg" version="1.1" viewBox="0 0 7558 2000">
  <defs>
    <style>
      .cls-1 {
        fill: #59b2f6;
        stroke-width: 0px;
      }
    </style>
  </defs>
  <g id="Logo">
    <g>
      <path class="cls-1" d="M3000.1,1602.1h-11.7c-9.4,0-17.7-6.4-20-15.5l-149.4-578.9v-152.2c0-11.4-9.3-20.7-20.7-20.7h-153.6c-11.4,0-20.7,9.3-20.7,20.7v152.2l-151.4,579c-2.4,9.1-10.6,15.4-20,15.4h-11.7c-9.4,0-17.7-6.4-20-15.5l-219.8-854.2c-2.4-9.1-10.6-15.5-20-15.5h-155.5c-13.5,0-23.3,12.7-20,25.7l257.2,1016.8c2.3,9.2,10.6,15.6,20,15.6h321.9c9.6,0,18-6.6,20.1-16l96.5-416,94.8,415.9c2.1,9.4,10.5,16.1,20.2,16.1h323.9c9.5,0,17.7-6.4,20-15.6l257.2-1016.8c3.3-13.1-6.6-25.7-20-25.7h-155.5c-9.4,0-17.6,6.4-20,15.5l-221.8,854.3c-2.4,9.1-10.6,15.5-20,15.5Z"/>
      <path class="cls-1" d="M4370.5,840.7c-91.4-98.3-211.1-151.8-342.1-151.8s-275.1,57-375.7,160.5c-101.5,104.5-157.4,244.6-157.4,394.5s55.9,293.4,157.3,399c100.5,104.5,234,162.1,375.8,162.1s250.5-54.6,342.1-155v104.4c0,11.4,9.3,20.7,20.7,20.7h153.6c11.4,0,20.7-9.3,20.7-20.7v-1016.8c0-11.4-9.3-20.7-20.7-20.7h-153.6c-11.4,0-20.7,9.3-20.7,20.7v103.1ZM4028.4,875.9c139,0,272.8,80.4,342.1,205.3v325.6c-75.2,132.5-202.7,211.4-342.1,211.4s-334.2-160.8-334.2-374.1,143.7-368.1,334.2-368.1Z"/>
      <rect class="cls-1" x="4790.2" y="237.3" width="194.9" height="1537.8" rx="20.7" ry="20.7"/>
      <rect class="cls-1" x="5217.8" y="237.3" width="194.9" height="1537.8" rx="20.7" ry="20.7"/>
      <path class="cls-1" d="M6154.5,688.9c-302.8,0-549.1,246.3-549.1,549.1s56.3,302.5,158.5,406.6c101.6,103.5,241.8,160.5,394.6,160.5s218.4-32.8,306.4-92.3c96.5-65.2,165.6-159.7,199.8-273.3h0c3.8-12.5-5.6-25.2-18.7-25.2h-155.9c-7.8,0-14.8,4.6-17.9,11.8h0c-57.4,132.7-199,192-313.8,192-189.8,0-324.6-118.9-353.4-306.8-1.9-12.5,7.9-23.8,20.5-23.8h840.5c10.8,0,19.5-8.7,19.5-19.5h0c0-158.2-51.9-303.6-146.1-409.6-97.1-109.2-233.8-169.4-385-169.4ZM6154.5,875.9c151,0,256.3,73.8,301.2,209.3,4.5,13.5-5.4,27.4-19.6,27.4h-588c-14.7,0-24.7-15-19.1-28.6,53.2-129.7,173.6-208.1,325.5-208.1Z"/>
      <path class="cls-1" d="M7147.2,696.2v-246.4c0-11.4-9.3-20.7-20.7-20.7h-153.6c-11.4,0-20.7,9.3-20.7,20.7v246.4c0,11.4-9.3,20.7-20.7,20.7h-172.5c-11.4,0-20.7,9.3-20.7,20.7v137.6c0,11.4,9.3,20.7,20.7,20.7h172.5c11.4,0,20.7,9.3,20.7,20.7v837.9c0,11.4,9.3,20.7,20.7,20.7h153.6c11.4,0,20.7-9.3,20.7-20.7v-837.9c0-11.4,9.3-20.7,20.7-20.7h174.5c11.4,0,20.7-9.3,20.7-20.7v-137.6c0-11.4-9.3-20.7-20.7-20.7h-174.5c-11.4,0-20.7-9.3-20.7-20.7Z"/>
    </g>
    <g>
      <path class="cls-1" d="M571.9,340.1c-6.8-8.1-18.6-9.9-27.4-3.9-163,110.4-281.3,284.7-327.3,475.7-45.9,190.6-19.3,395,73.7,567.5,80.9,150,209.2,272.8,362.8,346.6,107.7,51.8,226.5,78.9,346,78.9,146.2,0,283.3-38.8,401.5-106.9l-122.2-145.9c-83.8,42.4-178.5,66.4-278.9,66.4-171.9,0-338.5-73.1-455-199.5-122-132.4-207.7-349-147.7-528,30.1-89.8,114-131.5,203.6-106.4,170.6,47.7,277.2,215.6,384.8,344.1,0,0,589.2,703.5,589.2,703.5,7.4,8.8,20.4,9.9,29.1,2.5l113.1-94.7c8.8-7.4,9.9-20.4,2.5-29.1L571.9,340.1Z"/>
      <path class="cls-1" d="M1004.6,194.9c-137.9-.8-267.8,33.2-381.5,93.6-11.6,6.2-14.6,21.5-6.2,31.6l581.1,693.8c7.4,8.8,20.4,9.9,29.1,2.5l4.5-3.8c8.8-7.4,9.9-20.4,2.5-29.1,0,0-256-307.3-308.4-425.6-23.2-52.5-47.3-133,19.5-163.7,118.2-54.2,274.1,14.2,376,76.9,182.3,112.1,297.2,314.2,297.2,528.6,0,138.6-45.6,266.7-122.7,369.8l122.2,145.9c116.7-139.7,186.9-319.5,186.9-515.7,0-443.3-357.1-802.5-800.4-804.9Z"/>
    </g>
  </g>
</svg>