<?xml version="1.0" encoding="UTF-8"?>
<svg id="Qsilver_Brandmark" data-name="Qsilver Brandmark" xmlns="http://www.w3.org/2000/svg" version="1.1" viewBox="0 0 2000 2000">
  <defs>
    <style>
      .cls-1 {
        fill: #192b3b;
        stroke-width: 0px;
      }
    </style>
  </defs>
  <g id="Brandmark">
    <path class="cls-1" d="M571.8,340.1c-6.8-8.1-18.6-9.9-27.4-3.9-163,110.4-281.3,284.7-327.3,475.7-45.9,190.6-19.3,395,73.7,567.5,80.9,150,209.2,272.8,362.8,346.6,107.7,51.8,226.5,78.9,346,78.9,146.2,0,283.3-38.8,401.5-106.9l-122.2-145.9c-83.8,42.4-178.5,66.4-278.9,66.4-171.9,0-338.5-73.1-455-199.5-122-132.4-207.7-349-147.7-528,30.1-89.8,114-131.5,203.6-106.4,170.6,47.7,277.2,215.6,384.8,344.1,0,0,589.2,703.5,589.2,703.5,7.4,8.8,20.4,9.9,29.1,2.5l113.1-94.7c8.8-7.4,9.9-20.4,2.5-29.1L571.8,340.1Z"/>
    <path class="cls-1" d="M1004.5,194.9c-137.9-.8-267.8,33.2-381.5,93.6-11.6,6.2-14.6,21.5-6.2,31.6l581.1,693.8c7.4,8.8,20.4,9.9,29.1,2.5l4.5-3.8c8.8-7.4,9.9-20.4,2.5-29.1,0,0-256-307.3-308.4-425.6-23.2-52.5-47.3-133,19.5-163.7,118.2-54.2,274.1,14.2,376,76.9,182.3,112.1,297.2,314.2,297.2,528.6,0,138.6-45.6,266.7-122.7,369.8l122.2,145.9c116.7-139.7,186.9-319.5,186.9-515.7,0-443.3-357.1-802.5-800.4-804.9Z"/>
  </g>
</svg>