<?xml version="1.0" encoding="UTF-8"?>
<svg id="Qsilver_Logo" data-name="Qsilver Logo" xmlns="http://www.w3.org/2000/svg" viewBox="0 0 6715 2000">
  <defs>
    <style>
      .cls-1 {
        fill: #fff;
        stroke-width: 0px;
      }
    </style>
  </defs>
  <g id="Logo">
    <g>
      <path class="cls-1" d="M571.89,340.06c-6.82-8.06-18.6-9.85-27.36-3.93-162.99,110.35-281.3,284.69-327.31,475.66-45.92,190.59-19.32,395.01,73.67,567.47,80.86,149.96,209.23,272.76,362.77,346.64,107.66,51.8,226.53,78.87,346,78.92,146.15.07,283.28-38.8,401.46-106.94l-122.17-145.88c-83.79,42.45-178.47,66.36-278.87,66.36-171.86,0-338.5-73.13-454.95-199.51-122.04-132.44-207.71-348.99-147.67-527.96,30.11-89.77,114.02-131.49,203.63-106.45,170.57,47.67,277.18,215.65,384.8,344.12,0,0,589.16,703.48,589.16,703.48,7.37,8.75,20.4,9.92,29.15,2.55l113.15-94.75c8.75-7.37,9.92-20.4,2.55-29.15L571.89,340.06Z"/>
      <path class="cls-1" d="M1004.55,194.94c-137.88-.76-267.77,33.21-381.54,93.58-11.58,6.2-14.61,21.5-6.2,31.63l581.09,693.83c7.37,8.75,20.4,9.92,29.15,2.55l4.55-3.79c8.75-7.37,9.92-20.4,2.55-29.15,0,0-256.05-307.32-308.38-425.56-23.25-52.52-47.33-133.05,19.54-163.7,118.25-54.19,274.13,14.24,376.03,76.92,182.31,112.15,297.18,314.22,297.18,528.61,0,138.64-45.62,266.67-122.65,369.82l122.24,145.88c116.66-139.68,186.88-319.52,186.88-515.7,0-443.28-357.15-802.5-800.43-804.91Z"/>
    </g>
    <g>
      <path class="cls-1" d="M2441.68,1102.54h-115.85c-82.83,0-132.27-38.25-132.27-102.31s48.21-104.31,132.27-104.31h432.29c11.41,0,20.66-9.25,20.66-20.66v-137.54c0-11.41-9.25-20.66-20.66-20.66h-438.29c-187.9,0-319.13,116.45-319.13,283.18s131.23,281.18,319.13,281.18h113.85c132.26,0,202.18,50.57,202.18,146.25,0,62.83-26.78,168.22-206.17,168.22h-404.33c-11.41,0-20.66,9.25-20.66,20.66v137.54c0,11.41,9.25,20.66,20.66,20.66h414.31c286.84,0,389.04-178.26,389.04-345.09,0-158.14-101.68-327.12-387.05-327.12Z"/>
      <rect class="cls-1" x="2981.44" y="717.05" width="194.84" height="1057.71" rx="20.66" ry="20.66"/>
      <rect class="cls-1" x="2981.44" y="237.68" width="194.84" height="298.71" rx="20.66" ry="20.66"/>
      <rect class="cls-1" x="3408.86" y="237.68" width="194.84" height="1537.08" rx="20.66" ry="20.66"/>
      <path class="cls-1" d="M4210.27,1595.89h-27.81c-9.4,0-17.61-6.34-19.99-15.44l-221.63-847.96c-2.38-9.09-10.59-15.44-19.99-15.44h-159.43c-13.56,0-23.44,12.84-19.97,25.95l269.05,1016.38c2.4,9.06,10.6,15.38,19.97,15.38h331.8c9.38,0,17.58-6.31,19.97-15.38l269.05-1016.38c3.47-13.11-6.41-25.95-19.97-25.95h-159.44c-9.4,0-17.61,6.34-19.99,15.44l-221.62,847.96c-2.38,9.09-10.59,15.44-19.99,15.44Z"/>
      <path class="cls-1" d="M5257.99,689.08c-302.62,0-548.82,246.21-548.82,548.83,0,158.07,56.25,302.4,158.4,406.41,101.57,103.43,241.64,160.39,394.42,160.39,109.56,0,218.34-32.76,306.3-92.24,96.43-65.2,165.5-159.67,199.75-273.18h0c3.78-12.54-5.6-25.17-18.69-25.17h-155.81c-7.78,0-14.83,4.63-17.92,11.77h0c-57.39,132.61-198.88,191.96-313.64,191.96-190.13,0-325.04-119.43-353.46-308-1.78-11.8,7.42-22.46,19.36-22.46h841.44c10.78,0,19.52-8.74,19.52-19.52h0c0-158.09-51.85-303.5-145.99-409.45-97.04-109.2-233.72-169.35-384.86-169.35ZM4950.03,1112.53c-13.91,0-23.29-14.12-18.07-27.01,52.82-130.58,173.5-209.57,326.03-209.57s256.96,74.34,301.54,210.74c4.16,12.72-5.1,25.84-18.49,25.84h-591.02Z"/>
      <path class="cls-1" d="M6498.39,689.49c-143.77,5.35-274.5,62.62-334.04,119.52v-71.3c0-11.41-9.25-20.66-20.66-20.66h-153.52c-11.41,0-20.66,9.25-20.66,20.66v1016.38c0,11.41,9.25,20.66,20.66,20.66h153.52c11.41,0,20.66-9.25,20.66-20.66v-711.5c52.09-68.97,178.06-140.7,333.95-146.32,10.98-.4,19.69-9.39,19.81-20.38l1.82-165.49c.13-11.84-9.7-21.36-21.53-20.92Z"/>
    </g>
  </g>
</svg>