<?xml version="1.0" encoding="UTF-8"?>
<svg id="Qsilver_Logo" data-name="Qsilver Logo" xmlns="http://www.w3.org/2000/svg" version="1.1" viewBox="0 0 6715 2000">
  <defs>
    <style>
      .cls-1 {
        fill: #fff;
        stroke-width: 0px;
      }
    </style>
  </defs>
  <g id="Logo">
    <g>
      <path class="cls-1" d="M2441.9,1102.6h-115.9c-82.9,0-132.3-38.3-132.3-102.4s48.2-104.4,132.3-104.4h453.2v-179h-459.2c-188,0-319.3,116.5-319.3,283.3s131.3,281.3,319.3,281.3h113.9c132.3,0,202.3,50.6,202.3,146.3s-26.8,168.3-206.3,168.3h-425.2v178.9h435.2c287,0,389.2-178.3,389.2-345.2s-101.7-327.3-387.2-327.3Z"/>
      <rect class="cls-1" x="2981.9" y="716.9" width="194.9" height="1058.2"/>
      <rect class="cls-1" x="2981.9" y="237.3" width="194.9" height="298.8"/>
      <rect class="cls-1" x="3409.5" y="237.3" width="194.9" height="1537.8"/>
      <polygon class="cls-1" points="4227.2 1596.2 4167.5 1596.2 3941.5 731.5 3937.7 716.9 3735.4 716.9 4015.5 1775.1 4379.2 1775.1 4659.4 716.9 4457 716.9 4227.2 1596.2"/>
      <path class="cls-1" d="M5259.5,688.9c-302.8,0-549.1,246.3-549.1,549.1s56.3,302.5,158.5,406.6c101.6,103.5,241.7,160.5,394.6,160.5s218.4-32.8,306.4-92.3c96.5-65.2,165.6-159.7,199.8-273.3l7.6-25.2h-195l-5.1,11.8c-57.4,132.7-199,192-313.8,192-197.7,0-335.7-129-356.5-330.6h883.6v-19.5c0-158.2-51.9-303.6-146.1-409.6-97.1-109.2-233.8-169.4-385-169.4ZM4923.6,1112.6c46.5-146.7,173-236.7,335.9-236.7s269.9,83.8,309.2,236.7h-645.1Z"/>
      <path class="cls-1" d="M6500.4,688.9c-150.8,0-261.3,59-334.2,118.2v-90.2h-194.9v1058.2h194.9v-732.5c54.3-71.9,169.2-146.7,334.2-146.7h19.5v-206.9h-19.5Z"/>
    </g>
    <g>
      <path class="cls-1" d="M571.9,340.1c-6.8-8.1-18.6-9.9-27.4-3.9-163,110.4-281.3,284.7-327.3,475.7-45.9,190.6-19.3,395,73.7,567.5,80.9,150,209.2,272.8,362.8,346.6,107.7,51.8,226.5,78.9,346,78.9,146.2,0,283.3-38.8,401.5-106.9l-122.2-145.9c-83.8,42.4-178.5,66.4-278.9,66.4-171.9,0-338.5-73.1-455-199.5-122-132.4-207.7-349-147.7-528,30.1-89.8,114-131.5,203.6-106.4,170.6,47.7,277.2,215.6,384.8,344.1,0,0,589.2,703.5,589.2,703.5,7.4,8.8,20.4,9.9,29.1,2.5l113.1-94.7c8.8-7.4,9.9-20.4,2.5-29.1L571.9,340.1Z"/>
      <path class="cls-1" d="M1004.6,194.9c-137.9-.8-267.8,33.2-381.5,93.6-11.6,6.2-14.6,21.5-6.2,31.6l581.1,693.8c7.4,8.8,20.4,9.9,29.1,2.5l4.5-3.8c8.8-7.4,9.9-20.4,2.5-29.1,0,0-256-307.3-308.4-425.6-23.2-52.5-47.3-133,19.5-163.7,118.2-54.2,274.1,14.2,376,76.9,182.3,112.1,297.2,314.2,297.2,528.6,0,138.6-45.6,266.7-122.7,369.8l122.2,145.9c116.7-139.7,186.9-319.5,186.9-515.7,0-443.3-357.1-802.5-800.4-804.9Z"/>
    </g>
  </g>
</svg>