<?xml version="1.0" encoding="UTF-8"?>
<svg id="Qwallet_Wordmark" data-name="Qwallet Wordmark" xmlns="http://www.w3.org/2000/svg" viewBox="0 0 7558 2230">
  <defs>
    <style>
      .cls-1 {
        fill: #000;
        stroke-width: 0px;
      }
    </style>
  </defs>
  <g id="Wordmark">
    <path class="cls-1" d="M3000.12,1602.14h-11.7c-9.43,0-17.66-6.38-20.02-15.51l-149.44-578.92v-152.24c0-11.42-9.26-20.67-20.67-20.67h-153.59c-11.42,0-20.67,9.26-20.67,20.67v152.22l-151.38,579c-2.38,9.1-10.6,15.44-20,15.44h-11.72c-9.43,0-17.67-6.39-20.02-15.52l-219.82-854.19c-2.35-9.13-10.59-15.52-20.02-15.52h-155.5c-13.47,0-23.34,12.68-20.04,25.74l257.19,1016.84c2.32,9.18,10.58,15.6,20.04,15.6h321.92c9.62,0,17.96-6.63,20.14-16l96.51-415.96,94.82,415.88c2.14,9.41,10.51,16.08,20.15,16.08h323.92c9.46,0,17.72-6.43,20.04-15.6l257.19-1016.84c3.3-13.06-6.57-25.74-20.04-25.74h-155.51c-9.42,0-17.64,6.36-20.01,15.48l-221.77,854.28c-2.37,9.11-10.59,15.48-20.01,15.48Z"/>
    <path class="cls-1" d="M4370.55,840.71c-91.4-98.28-211.09-151.77-342.15-151.77-141.7,0-275.13,57.02-375.7,160.54-101.5,104.48-157.4,244.59-157.4,394.53s55.87,293.44,157.32,398.96c100.51,104.53,233.96,162.11,375.77,162.11,130.79,0,250.49-54.64,342.15-155.03v104.38c0,11.42,9.26,20.67,20.67,20.67h153.59c11.42,0,20.67-9.26,20.67-20.67v-1016.84c0-11.42-9.26-20.67-20.67-20.67h-153.59c-11.42,0-20.67,9.26-20.67,20.67v103.13ZM4028.4,875.87c138.99,0,272.76,80.41,342.15,205.28v325.61c-75.15,132.46-202.71,211.37-342.15,211.37-190.5,0-334.17-160.84-334.17-374.13s143.66-368.13,334.17-368.13Z"/>
    <rect class="cls-1" x="4790.19" y="237.32" width="194.93" height="1537.77" rx="20.67" ry="20.67"/>
    <rect class="cls-1" x="5217.81" y="237.32" width="194.93" height="1537.77" rx="20.67" ry="20.67"/>
    <path class="cls-1" d="M6154.54,688.94c-302.76,0-549.07,246.32-549.07,549.07,0,158.14,56.28,302.54,158.46,406.59,101.61,103.48,241.75,160.47,394.61,160.47,109.61,0,218.43-32.77,306.43-92.28,96.47-65.23,165.58-159.74,199.84-273.3h0c3.78-12.54-5.6-25.18-18.7-25.18h-155.86c-7.79,0-14.83,4.63-17.93,11.77h0c-57.43,132.67-198.98,192.05-313.78,192.05-189.78,0-324.57-118.93-353.42-306.83-1.92-12.5,7.85-23.78,20.49-23.78h840.49c10.79,0,19.53-8.75,19.53-19.53h0c0-158.16-51.88-303.63-146.06-409.63-97.08-109.25-233.83-169.42-385.03-169.42ZM6154.54,875.87c150.99,0,256.28,73.82,301.17,209.31,4.46,13.46-5.41,27.38-19.59,27.38h-587.97c-14.73,0-24.73-14.98-19.14-28.61,53.18-129.7,173.55-208.08,325.54-208.08Z"/>
    <path class="cls-1" d="M7147.24,696.24v-246.4c0-11.42-9.26-20.67-20.67-20.67h-153.59c-11.42,0-20.67,9.26-20.67,20.67v246.4c0,11.42-9.26,20.67-20.67,20.67h-172.47c-11.42,0-20.67,9.26-20.67,20.67v137.61c0,11.42,9.26,20.67,20.67,20.67h172.47c11.42,0,20.67,9.26,20.67,20.67v837.89c0,11.42,9.26,20.67,20.67,20.67h153.59c11.42,0,20.67-9.26,20.67-20.67v-837.89c0-11.42,9.26-20.67,20.67-20.67h174.48c11.42,0,20.67-9.26,20.67-20.67v-137.61c0-11.42-9.26-20.67-20.67-20.67h-174.48c-11.42,0-20.67-9.26-20.67-20.67Z"/>
    <path class="cls-1" d="M1000.03,195.35c-458.86,0-804.88,346.03-804.88,804.89,0,421.71,297.76,754.13,710.71,797.08v216.49c0,11.5,9.33,20.83,20.83,20.83h148.7c11.5,0,20.83-9.33,20.83-20.83v-216.58c411.75-44.82,708.7-377.21,708.7-797,0-458.86-346.02-804.89-804.88-804.89ZM905.86,1110.1v502.12c-303.95-42.21-514.31-290.82-514.31-611.98,0-359.58,255.9-620.57,608.48-620.57s608.48,260.98,608.48,620.57c0,321.26-209.52,569.87-512.3,611.98v-502.11c0-11.5-9.33-20.83-20.83-20.83h-148.7c-11.5,0-20.83,9.33-20.83,20.83Z"/>
  </g>
</svg>