<?xml version="1.0" encoding="UTF-8"?>
<svg id="Qwallet_Wordmark" data-name="Qwallet Wordmark" xmlns="http://www.w3.org/2000/svg" version="1.1" viewBox="0 0 7558 2230">
  <defs>
    <style>
      .cls-1 {
        fill: #000;
        stroke-width: 0px;
      }
    </style>
  </defs>
  <g id="Wordmark">
    <path class="cls-1" d="M1000,195.4c-458.9,0-804.9,346-804.9,804.9s297.8,754.1,710.7,797.1v237.3h190.4v-237.4c411.8-44.8,708.7-377.2,708.7-797S1458.9,195.4,1000,195.4ZM905.9,1089.3v523c-303.9-42.2-514.3-290.8-514.3-612s255.9-620.6,608.5-620.6,608.5,261,608.5,620.6-209.5,569.9-512.3,612v-522.9h-190.4Z"/>
    <path class="cls-1" d="M3000.1,1602.1h-11.7c-9.4,0-17.7-6.4-20-15.5l-149.4-578.9v-152.2c0-11.4-9.3-20.7-20.7-20.7h-153.6c-11.4,0-20.7,9.3-20.7,20.7v152.2l-151.4,579c-2.4,9.1-10.6,15.4-20,15.4h-11.7c-9.4,0-17.7-6.4-20-15.5l-219.8-854.2c-2.4-9.1-10.6-15.5-20-15.5h-155.5c-13.5,0-23.3,12.7-20,25.7l257.2,1016.8c2.3,9.2,10.6,15.6,20,15.6h321.9c9.6,0,18-6.6,20.1-16l96.5-416,94.8,415.9c2.1,9.4,10.5,16.1,20.2,16.1h323.9c9.5,0,17.7-6.4,20-15.6l257.2-1016.8c3.3-13.1-6.6-25.7-20-25.7h-155.5c-9.4,0-17.6,6.4-20,15.5l-221.8,854.3c-2.4,9.1-10.6,15.5-20,15.5Z"/>
    <path class="cls-1" d="M4370.5,840.7c-91.4-98.3-211.1-151.8-342.1-151.8s-275.1,57-375.7,160.5c-101.5,104.5-157.4,244.6-157.4,394.5s55.9,293.4,157.3,399c100.5,104.5,234,162.1,375.8,162.1s250.5-54.6,342.1-155v104.4c0,11.4,9.3,20.7,20.7,20.7h153.6c11.4,0,20.7-9.3,20.7-20.7v-1016.8c0-11.4-9.3-20.7-20.7-20.7h-153.6c-11.4,0-20.7,9.3-20.7,20.7v103.1ZM4028.4,875.9c139,0,272.8,80.4,342.1,205.3v325.6c-75.2,132.5-202.7,211.4-342.1,211.4s-334.2-160.8-334.2-374.1,143.7-368.1,334.2-368.1Z"/>
    <rect class="cls-1" x="4790.2" y="237.3" width="194.9" height="1537.8" rx="20.7" ry="20.7"/>
    <rect class="cls-1" x="5217.8" y="237.3" width="194.9" height="1537.8" rx="20.7" ry="20.7"/>
    <path class="cls-1" d="M6154.5,688.9c-302.8,0-549.1,246.3-549.1,549.1s56.3,302.5,158.5,406.6c101.6,103.5,241.8,160.5,394.6,160.5s218.4-32.8,306.4-92.3c96.5-65.2,165.6-159.7,199.8-273.3h0c3.8-12.5-5.6-25.2-18.7-25.2h-155.9c-7.8,0-14.8,4.6-17.9,11.8h0c-57.4,132.7-199,192-313.8,192-189.8,0-324.6-118.9-353.4-306.8-1.9-12.5,7.9-23.8,20.5-23.8h840.5c10.8,0,19.5-8.7,19.5-19.5h0c0-158.2-51.9-303.6-146.1-409.6-97.1-109.2-233.8-169.4-385-169.4ZM6154.5,875.9c151,0,256.3,73.8,301.2,209.3,4.5,13.5-5.4,27.4-19.6,27.4h-588c-14.7,0-24.7-15-19.1-28.6,53.2-129.7,173.6-208.1,325.5-208.1Z"/>
    <path class="cls-1" d="M7147.2,696.2v-246.4c0-11.4-9.3-20.7-20.7-20.7h-153.6c-11.4,0-20.7,9.3-20.7,20.7v246.4c0,11.4-9.3,20.7-20.7,20.7h-172.5c-11.4,0-20.7,9.3-20.7,20.7v137.6c0,11.4,9.3,20.7,20.7,20.7h172.5c11.4,0,20.7,9.3,20.7,20.7v837.9c0,11.4,9.3,20.7,20.7,20.7h153.6c11.4,0,20.7-9.3,20.7-20.7v-837.9c0-11.4,9.3-20.7,20.7-20.7h174.5c11.4,0,20.7-9.3,20.7-20.7v-137.6c0-11.4-9.3-20.7-20.7-20.7h-174.5c-11.4,0-20.7-9.3-20.7-20.7Z"/>
  </g>
</svg>