<?xml version="1.0" encoding="UTF-8"?>
<svg id="Qsilver_Wordmark" data-name="Qsilver Wordmark" xmlns="http://www.w3.org/2000/svg" viewBox="0 0 6715 2230">
  <defs>
    <style>
      .cls-1 {
        fill: #fff;
        stroke-width: 0px;
      }
    </style>
  </defs>
  <g id="Wordmark">
    <path class="cls-1" d="M2441.68,1094.38h-115.85c-82.83,0-132.27-38.25-132.27-102.31s48.21-104.31,132.27-104.31h432.29c11.41,0,20.66-9.25,20.66-20.66v-137.54c0-11.41-9.25-20.66-20.66-20.66h-438.29c-187.9,0-319.13,116.45-319.13,283.18s131.23,281.18,319.13,281.18h113.85c132.26,0,202.18,50.57,202.18,146.25,0,62.83-26.78,168.22-206.17,168.22h-404.33c-11.41,0-20.66,9.25-20.66,20.66v137.54c0,11.41,9.25,20.66,20.66,20.66h414.31c286.84,0,389.04-178.26,389.04-345.09,0-158.14-101.68-327.12-387.05-327.12Z"/>
    <rect class="cls-1" x="2981.44" y="708.89" width="194.84" height="1057.71" rx="20.66" ry="20.66"/>
    <rect class="cls-1" x="2981.44" y="229.52" width="194.84" height="298.71" rx="20.66" ry="20.66"/>
    <rect class="cls-1" x="3408.86" y="229.52" width="194.84" height="1537.08" rx="20.66" ry="20.66"/>
    <path class="cls-1" d="M4210.27,1587.73h-27.81c-9.4,0-17.61-6.34-19.99-15.44l-221.63-847.96c-2.38-9.09-10.59-15.44-19.99-15.44h-159.43c-13.56,0-23.44,12.84-19.97,25.95l269.05,1016.38c2.4,9.06,10.6,15.38,19.97,15.38h331.8c9.38,0,17.58-6.31,19.97-15.38l269.05-1016.38c3.47-13.11-6.41-25.95-19.97-25.95h-159.44c-9.4,0-17.61,6.34-19.99,15.44l-221.62,847.96c-2.38,9.09-10.59,15.44-19.99,15.44Z"/>
    <path class="cls-1" d="M5257.99,680.92c-302.62,0-548.82,246.21-548.82,548.83,0,158.07,56.25,302.4,158.4,406.41,101.57,103.43,241.64,160.39,394.42,160.39,109.56,0,218.34-32.76,306.3-92.24,96.43-65.2,165.5-159.67,199.75-273.18h0c3.78-12.54-5.6-25.17-18.69-25.17h-155.81c-7.78,0-14.83,4.63-17.92,11.77h0c-57.39,132.61-198.88,191.96-313.64,191.96-190.13,0-325.04-119.43-353.46-308-1.78-11.8,7.42-22.46,19.36-22.46h841.44c10.78,0,19.52-8.74,19.52-19.52h0c0-158.09-51.85-303.5-145.99-409.45-97.04-109.2-233.72-169.35-384.86-169.35ZM4950.03,1104.37c-13.91,0-23.29-14.12-18.07-27.01,52.82-130.58,173.5-209.57,326.03-209.57s256.96,74.34,301.54,210.74c4.16,12.72-5.1,25.84-18.49,25.84h-591.02Z"/>
    <path class="cls-1" d="M6498.39,681.33c-143.77,5.35-274.5,62.62-334.04,119.52v-71.3c0-11.41-9.25-20.66-20.66-20.66h-153.52c-11.41,0-20.66,9.25-20.66,20.66v1016.38c0,11.41,9.25,20.66,20.66,20.66h153.52c11.41,0,20.66-9.25,20.66-20.66v-711.5c52.09-68.97,178.06-140.7,333.95-146.32,10.98-.4,19.69-9.39,19.81-20.38l1.82-165.49c.13-11.84-9.7-21.36-21.53-20.92Z"/>
    <path class="cls-1" d="M1000.03,195.35c-458.86,0-804.88,346.03-804.88,804.89,0,421.71,297.76,754.13,710.71,797.08v216.49c0,11.5,9.33,20.83,20.83,20.83h148.7c11.5,0,20.83-9.33,20.83-20.83v-216.58c411.75-44.82,708.7-377.21,708.7-797,0-458.86-346.02-804.89-804.88-804.89ZM905.86,1110.1v502.12c-303.95-42.21-514.31-290.82-514.31-611.98,0-359.58,255.9-620.57,608.48-620.57s608.48,260.98,608.48,620.57c0,321.26-209.52,569.87-512.3,611.98v-502.11c0-11.5-9.33-20.83-20.83-20.83h-148.7c-11.5,0-20.83,9.33-20.83,20.83Z"/>
  </g>
</svg>